# ProBuilder 4.5.0
# https://unity3d.com/unity/features/worldbuilding/probuilder
# 30/04/2021 15:53:14

mtllib ./Skateboard.mtl
o Skateboard

g Skateboard
v 0.199 0.01699999 0.514
v -0.201 0.01699999 0.514
v 0.201 0.05699999 0.514
v -0.199 0.05699999 0.514
v -0.251 -0.025 0.4
v -0.251 -0.025 -0.4
v -0.249 0.025 0.4
v -0.249 0.025 -0.4
v -0.201 0.01699999 -0.5
v 0.199 0.01699999 -0.5
v -0.199 0.057 -0.5
v 0.201 0.057 -0.5
v 0.249 -0.025 -0.4
v 0.249 -0.025 0.4
v 0.251 0.025 -0.4
v 0.251 0.025 0.4

vt 0.199 0.01699999
vt -0.201 0.01699999
vt 0.201 0.05699999
vt -0.199 0.05699999
vt 0.4 -0.03501187
vt -0.4 -0.03501187
vt 0.4 0.01502811
vt -0.4 0.01502811
vt 0.201 0.01699999
vt -0.199 0.01699999
vt 0.199 0.057
vt -0.201 0.057
vt 0.4 -0.01502811
vt -0.4 -0.01502811
vt 0.4 0.03501187
vt -0.4 0.03501187
vt -0.251 0.4
vt 0.249 0.4
vt -0.251 -0.4
vt 0.249 -0.4
vt -0.251 -0.359112
vt 0.249 -0.359112
vt -0.201 -0.467574
vt 0.199 -0.467574
vt -0.250535 0.01064409
vt -0.249659 -0.03938822
vt -0.3623324 0.04266477
vt -0.3614565 0.002625986
vt 0.2410319 -0.01060705
vt 0.2401137 0.03942451
vt 0.3528253 0.03141945
vt 0.3519071 0.07145732
vt -0.251 -0.388589
vt 0.249 -0.388589
vt -0.201 -0.4935843
vt 0.199 -0.4935843
vt 0.249 0.3666946
vt -0.251 0.3666946
vt 0.199 0.4881853
vt -0.201 0.4881853
vt -0.2618245 0.03931002
vt -0.262645 -0.01072324
vt -0.386302 0.07133129
vt -0.3871224 0.03129139
vt 0.2703303 -0.03923309
vt 0.2711108 0.0108008
vt 0.3948036 0.002795371
vt 0.3955841 0.04283604
vt 0.249 0.3918718
vt -0.251 0.3918718
vt 0.199 0.5102779
vt -0.201 0.5102779

vn 0 0 1
vn -0.999201 0.03996753 0
vn 0 0 -1
vn 0.999201 -0.03996753 0
vn 0 1 0
vn 0 -1 0
vn 0 -0.9219822 -0.3872323
vn -0.898402 0.03593562 -0.4377013
vn -0.8996806 0.0404915 -0.4346304
vn -0.9009591 0.04504737 -0.4315594
vn 0.8878174 -0.03551225 -0.4588236
vn 0.8878045 -0.03995062 -0.4584618
vn 0.8877916 -0.04438901 -0.4581
vn 0 0.9524242 0.3047757
vn 0 -0.9383431 0.3457053
vn 0.9113753 -0.03645454 0.4099588
vn 0.909977 -0.04094145 0.4125974
vn 0.9085787 -0.04542835 0.4152361
vn -0.9200847 0.03680292 0.3899868
vn -0.9197938 0.04138874 0.3901861
vn -0.9195029 0.04597455 0.3903854
vn 0 0.9627884 -0.2702563

usemtl Skateboard
f 3/3/1 4/4/1 2/2/1 1/1/1
f 7/7/2 8/8/2 6/6/2 5/5/2
f 11/11/3 12/12/3 10/10/3 9/9/3
f 15/15/4 16/16/4 14/14/4 13/13/4
f 15/19/5 8/20/5 7/18/5 16/17/5
f 14/18/6 5/17/6 6/19/6 13/20/6
f 9/23/7 10/24/7 13/22/7 6/21/7
f 11/27/9 9/28/10 6/26/9 8/25/8
f 10/31/12 12/32/13 15/30/12 13/29/11
f 12/35/14 11/36/14 8/34/14 15/33/14
f 1/39/15 2/40/15 5/38/15 14/37/15
f 3/43/17 1/44/18 14/42/17 16/41/16
f 2/47/20 4/48/21 7/46/20 5/45/19
f 4/51/22 3/52/22 16/50/22 7/49/22

